<svg width="123" height="21" viewBox="0 0 123 21" fill="none" xmlns="http://www.w3.org/2000/svg">
<path d="M40 1.5V1H39.913L39.8311 1.0294L40 1.5ZM82.7511 1.5L82.9191 1.02906L82.8376 1H82.7511V1.5ZM122.216 15.9518C122.466 15.8335 122.572 15.5353 122.454 15.2858L120.526 11.2197C120.408 10.9702 120.109 10.8639 119.86 10.9822C119.61 11.1005 119.504 11.3987 119.622 11.6482L121.336 15.2624L117.722 16.9763C117.472 17.0946 117.366 17.3928 117.484 17.6423C117.603 17.8918 117.901 17.9982 118.15 17.8798L122.216 15.9518ZM1.16697 15.9706L3.11707 15.2706L2.77922 14.3294L0.829122 15.0294L1.16697 15.9706ZM7.01726 13.8706L10.9175 12.4706L10.5796 11.5294L6.67941 12.9294L7.01726 13.8706ZM14.8177 11.0706L18.7179 9.6706L18.38 8.7294L14.4798 10.1294L14.8177 11.0706ZM22.618 8.2706L26.5182 6.8706L26.1804 5.9294L22.2802 7.3294L22.618 8.2706ZM30.4184 5.4706L34.3186 4.0706L33.9808 3.1294L30.0806 4.5294L30.4184 5.4706ZM38.2188 2.6706L40.1689 1.9706L39.8311 1.0294L37.881 1.7294L38.2188 2.6706ZM40 2H42.1376V1H40V2ZM46.4127 2H50.6878V1H46.4127V2ZM54.9629 2H59.238V1H54.9629V2ZM63.5131 2H67.7882V1H63.5131V2ZM72.0633 2H76.3384V1H72.0633V2ZM80.6135 2L82.7511 2V1H80.6135V2ZM82.5831 1.97094L84.5457 2.67094L84.8816 1.72906L82.9191 1.02906L82.5831 1.97094ZM88.4708 4.07094L92.3959 5.47094L92.7318 4.52906L88.8067 3.12906L88.4708 4.07094ZM96.321 6.87094L100.246 8.27094L100.582 7.32906L96.6569 5.92906L96.321 6.87094ZM104.171 9.67094L108.096 11.0709L108.432 10.1291L104.507 8.72906L104.171 9.67094ZM112.021 12.4709L115.947 13.8709L116.282 12.9291L112.357 11.5291L112.021 12.4709ZM119.872 15.2709L121.834 15.9709L122.17 15.0291L120.208 14.3291L119.872 15.2709ZM40 1.5V0.5H39.826L39.6622 0.5588L40 1.5ZM82.7511 1.5L83.087 0.558119L82.9241 0.5H82.7511V1.5ZM122.431 16.4036C122.93 16.1669 123.142 15.5706 122.906 15.0715L119.05 6.93949C118.813 6.44047 118.217 6.22776 117.718 6.46439C117.219 6.70102 117.006 7.29738 117.242 7.79641L120.67 15.0249L113.442 18.4526C112.943 18.6892 112.73 19.2856 112.967 19.7846C113.203 20.2836 113.8 20.4963 114.299 20.2597L122.431 16.4036ZM1.3359 16.4412L3.28599 15.7412L2.61029 13.8588L0.660197 14.5588L1.3359 16.4412ZM7.18619 14.3412L11.0864 12.9412L10.4107 11.0588L6.51049 12.4588L7.18619 14.3412ZM14.9866 11.5412L18.8868 10.1412L18.2111 8.2588L14.3109 9.6588L14.9866 11.5412ZM22.787 8.7412L26.6872 7.3412L26.0115 5.4588L22.1113 6.8588L22.787 8.7412ZM30.5874 5.9412L34.4876 4.5412L33.8119 2.6588L29.9117 4.0588L30.5874 5.9412ZM38.3878 3.1412L40.3378 2.4412L39.6622 0.5588L37.7121 1.2588L38.3878 3.1412ZM40 2.5H42.1376V0.5H40V2.5ZM46.4127 2.5H50.6878V0.5H46.4127V2.5ZM54.9629 2.5H59.238V0.5H54.9629V2.5ZM63.5131 2.5H67.7882V0.5L63.5131 0.5V2.5ZM72.0633 2.5H76.3384V0.5H72.0633V2.5ZM80.6135 2.5H82.7511V0.5H80.6135V2.5ZM82.4151 2.44188L84.3777 3.14188L85.0496 1.25812L83.087 0.558119L82.4151 2.44188ZM88.3028 4.54188L92.2279 5.94188L92.8998 4.05812L88.9747 2.65812L88.3028 4.54188ZM96.153 7.34188L100.078 8.74188L100.75 6.85812L96.8249 5.45812L96.153 7.34188ZM104.003 10.1419L107.928 11.5419L108.6 9.65812L104.675 8.25812L104.003 10.1419ZM111.853 12.9419L115.779 14.3419L116.45 12.4581L112.525 11.0581L111.853 12.9419ZM119.704 15.7419L121.666 16.4419L122.338 14.5581L120.376 13.8581L119.704 15.7419Z" fill="#8759FF"/>
</svg>
