<svg width="19" height="84" viewBox="0 0 19 84" fill="none" xmlns="http://www.w3.org/2000/svg">
<path d="M18 27.4302H18.5V27.3059L18.4418 27.1961L18 27.4302ZM18 56.401L18.4425 56.6339L18.5 56.5245V56.401H18ZM3.52247 83.1482C3.60431 83.4119 3.88446 83.5594 4.14819 83.4775L8.446 82.1438C8.70974 82.062 8.85719 81.7818 8.77534 81.5181C8.6935 81.2543 8.41335 81.1069 8.14962 81.1887L4.32934 82.3743L3.1438 78.554C3.06196 78.2903 2.78181 78.1428 2.51808 78.2247C2.25434 78.3065 2.10689 78.5866 2.18874 78.8504L3.52247 83.1482ZM3.55816 1.23404L4.43316 2.88593L5.31684 2.41784L4.44184 0.765957L3.55816 1.23404ZM6.18316 6.1897L7.93316 9.49347L8.81684 9.02539L7.06684 5.72161L6.18316 6.1897ZM9.68316 12.7972L11.4332 16.101L12.3168 15.6329L10.5668 12.3292L9.68316 12.7972ZM13.1832 19.4048L14.9332 22.7086L15.8168 22.2405L14.0668 18.9367L13.1832 19.4048ZM16.6832 26.0123L17.5582 27.6642L18.4418 27.1961L17.5668 25.5442L16.6832 26.0123ZM17.5 27.4302V29.2408H18.5V27.4302H17.5ZM17.5 32.8622V36.4836H18.5V32.8622H17.5ZM17.5 40.1049V43.7263H18.5V40.1049H17.5ZM17.5 47.3476V50.969H18.5V47.3476H17.5ZM17.5 54.5903V56.401H18.5V54.5903H17.5ZM17.5575 56.1681L16.6825 57.8306L17.5675 58.2963L18.4425 56.6339L17.5575 56.1681ZM14.9325 61.1554L13.1825 64.4803L14.0675 64.9461L15.8175 61.6212L14.9325 61.1554ZM11.4325 67.8052L9.68254 71.1301L10.5675 71.5958L12.3175 68.2709L11.4325 67.8052ZM7.93254 74.4549L6.18254 77.7798L7.06745 78.2456L8.81745 74.9207L7.93254 74.4549ZM4.43254 81.1047L3.55754 82.7671L4.44246 83.2329L5.31745 81.5704L4.43254 81.1047ZM18 27.4302H19V27.1817L18.8837 26.9621L18 27.4302ZM18 56.401L18.8849 56.8668L19 56.6481V56.401H18ZM3.04493 83.2964C3.20862 83.8239 3.76891 84.1188 4.29638 83.9551L12.892 81.2876C13.4195 81.1239 13.7144 80.5636 13.5507 80.0362C13.387 79.5087 12.8267 79.2138 12.2992 79.3775L4.65868 81.7486L2.28761 74.108C2.12392 73.5805 1.56363 73.2856 1.03616 73.4493C0.508686 73.613 0.213783 74.1733 0.377472 74.7008L3.04493 83.2964ZM3.11632 1.46809L3.99132 3.11997L5.75868 2.1838L4.88368 0.531915L3.11632 1.46809ZM5.74132 6.42374L7.49132 9.72751L9.25868 8.79134L7.50868 5.48757L5.74132 6.42374ZM9.24132 13.0313L10.9913 16.3351L12.7587 15.3989L11.0087 12.0951L9.24132 13.0313ZM12.7413 19.6388L14.4913 22.9426L16.2587 22.0064L14.5087 18.7027L12.7413 19.6388ZM16.2413 26.2464L17.1163 27.8983L18.8837 26.9621L18.0087 25.3102L16.2413 26.2464ZM17 27.4302V29.2408H19V27.4302H17ZM17 32.8622V36.4836H19V32.8622H17ZM17 40.1049V43.7263H19V40.1049H17ZM17 47.3476V50.969H19V47.3476H17ZM17 54.5903V56.401H19V54.5903H17ZM17.1151 55.9352L16.2401 57.5977L18.0099 58.5292L18.8849 56.8668L17.1151 55.9352ZM14.4901 60.9226L12.7401 64.2474L14.5099 65.1789L16.2599 61.8541L14.4901 60.9226ZM10.9901 67.5723L9.24009 70.8972L11.0099 71.8287L12.7599 68.5038L10.9901 67.5723ZM7.49009 74.2221L5.74009 77.5469L7.50991 78.4784L9.25991 75.1536L7.49009 74.2221ZM3.99009 80.8718L3.11509 82.5342L4.88491 83.4658L5.75991 81.8033L3.99009 80.8718Z" fill="#8759FF"/>
</svg>
